HIERARCHY
ROOT Hips
{
	OFFSET 0.000000 0.000000 0.000000 
	CHANNELS 6 Xposition Yposition Zposition Zrotation Yrotation Xrotation
	JOINT LeftUpLeg
	{
		OFFSET 1.363060 -1.794630 0.839290 
		CHANNELS 3 Zrotation Yrotation Xrotation
		JOINT LeftLeg
		{
			OFFSET 2.448110 -6.726130 0.000000 
			CHANNELS 3 Zrotation Yrotation Xrotation
			JOINT LeftFoot
			{
				OFFSET 2.562200 -7.039590 0.000000 
				CHANNELS 3 Zrotation Yrotation Xrotation
				JOINT LeftToeBase
				{
					OFFSET 0.157640 -0.433110 2.322550 
					CHANNELS 3 Zrotation Yrotation Xrotation
					End Site
					{
						OFFSET 0.000000 0.000000 0.000000 
					}
				}
			}
		}
	}
	JOINT RightUpLeg
	{
		OFFSET -1.305520 -1.794630 0.839290 
		CHANNELS 3 Zrotation Yrotation Xrotation
		JOINT RightLeg
		{
			OFFSET -2.542530 -6.985550 0.000000 
			CHANNELS 3 Zrotation Yrotation Xrotation
			JOINT RightFoot
			{
				OFFSET -2.568260 -7.056230 0.000000 
				CHANNELS 3 Zrotation Yrotation Xrotation
				JOINT RightToeBase
				{
					OFFSET -0.164730 -0.452590 2.363150 
					CHANNELS 3 Zrotation Yrotation Xrotation
					End Site
					{
						OFFSET 0.000000 0.000000 0.000000 
					}
				}
			}
		}
	}
	JOINT Spine
	{
		OFFSET 0.028270 2.035590 -0.193380 
		CHANNELS 3 Zrotation Yrotation Xrotation
		JOINT Spine1
		{
			OFFSET 0.056720 2.048850 -0.042750 
			CHANNELS 3 Zrotation Yrotation Xrotation
			JOINT Neck1
			{
				OFFSET -0.054170 1.746240 0.172020 
				CHANNELS 3 Zrotation Yrotation Xrotation
				JOINT Head
				{
					OFFSET 0.104070 1.761360 -0.123970 
					CHANNELS 3 Zrotation Yrotation Xrotation
					End Site
					{
						OFFSET 0.000000 0.000000 0.000000 
					}
				}
			}
			JOINT LeftArm
			{
				OFFSET 3.362410 1.200890 -0.311210 
				CHANNELS 3 Zrotation Yrotation Xrotation
				JOINT LeftForeArm
				{
					OFFSET 4.983000 -0.000000 -0.000000 
					CHANNELS 3 Zrotation Yrotation Xrotation
					JOINT LeftHand
					{
						OFFSET 3.483560 -0.000000 -0.000000 
						CHANNELS 3 Zrotation Yrotation Xrotation
						JOINT LeftHandIndex1
						{
							OFFSET 0.715260 -0.000000 -0.000000 
							CHANNELS 3 Zrotation Yrotation Xrotation
							End Site
							{
								OFFSET 0.000000 0.000000 0.000000 
							}
						}
					}
				}
			}
			JOINT RightArm
			{
				OFFSET -3.136600 1.374050 -0.404650 
				CHANNELS 3 Zrotation Yrotation Xrotation
				JOINT RightForeArm
				{
					OFFSET -5.241900 -0.000000 -0.000000 
					CHANNELS 3 Zrotation Yrotation Xrotation
					JOINT RightHand
					{
						OFFSET -3.444170 -0.000000 -0.000000 
						CHANNELS 3 Zrotation Yrotation Xrotation
						JOINT RightHandIndex1
						{
							OFFSET -0.622530 -0.000000 -0.000000 
							CHANNELS 3 Zrotation Yrotation Xrotation
							End Site
							{
								OFFSET 0.000000 0.000000 0.000000 
							}
						}
					}
				}
			}
		}
	}
}
MOTION
Frames: 9
Frame Time: 0.041667
-0.854317 14.002968 17.647217 83.643975 34.073439 80.970517 -27.620475 13.379456 -15.061596 22.339188 19.141274 96.630414 0.271991 2.489221 13.133334 0.047300 -1.403000 -3.858500 36.999287 17.610837 -29.536653 -4.912256 -14.110051 43.891230 -3.340414 14.006774 26.867339 -1.375700 7.422500 -20.973200 -8.651971 -3.463468 -26.071634 -1.117210 -0.584997 0.802579 -14.480882 -8.387396 35.388174 -6.177000 -4.585400 13.031600 -0.066930 -0.299462 -16.309557 15.148642 -19.781256 -2.791519 1.019833 1.106467 -39.956316 -7.125000 0.000000 0.000000 -4.452245 -47.783730 -27.057865 -27.212165 36.649051 -7.751505 0.130340 -3.007159 -5.199701 7.125000 0.000000 0.000000 
-0.852380 14.026919 17.555792 83.273269 37.096857 80.662489 -23.670622 13.557366 -14.787394 22.447016 19.181519 96.957210 0.412480 1.455967 13.084489 0.036000 -1.224200 -3.365900 40.315907 17.229574 -28.712022 -4.802420 -13.915688 43.443752 -3.304475 13.992606 26.645691 -1.346500 7.346400 -20.745700 -7.202146 -3.252178 -26.138796 -2.423637 -0.674406 0.804645 -14.292578 -8.568067 35.501727 -6.073600 -4.655300 13.051200 -0.143737 -0.424581 -16.677876 15.158277 -19.813006 -2.787384 0.981990 1.105022 -39.585171 -7.125000 0.000000 0.000000 -4.691391 -47.635781 -27.646815 -26.875525 36.435503 -7.665708 0.090689 -3.126893 -4.896378 7.125000 0.000000 0.000000 
-0.849323 14.016116 17.470788 83.764904 36.826020 81.561521 -24.344843 12.879562 -15.198749 22.467062 19.209057 96.982955 0.340574 1.959962 13.026856 0.006000 -0.500200 -1.374500 39.840751 17.527032 -29.097329 -4.704300 -13.843918 43.090997 -3.287315 14.394873 26.165497 -1.255000 7.102200 -20.018400 -7.154207 -3.357754 -26.248674 -2.154858 -0.712645 1.147440 -14.414863 -8.720375 35.516502 -6.152700 -4.700900 13.029800 -0.201042 -0.427601 -16.571273 15.242565 -19.916406 -2.810101 0.932848 1.143128 -39.894462 -7.125000 0.000000 0.000000 -4.729952 -47.738226 -27.650398 -26.923127 36.404593 -7.588263 0.172420 -3.005411 -4.941884 7.125000 0.000000 0.000000 
-0.855336 14.029060 17.390371 84.071248 38.868397 81.887042 -21.548497 12.819621 -15.312670 22.591642 19.262568 97.347454 0.451344 1.209365 13.152175 0.001700 -0.269100 -0.739500 41.920113 17.234746 -28.529109 -4.448838 -13.518178 42.097021 -3.261969 15.225564 25.670336 -1.153600 6.819400 -19.181500 -6.218321 -3.379004 -26.349135 -2.986058 -0.851960 1.071329 -13.998293 -9.030995 35.637821 -5.950800 -4.799100 13.063700 -0.155359 -0.450503 -16.274351 15.246789 -19.965396 -2.815244 0.900327 1.143687 -40.166434 -7.125000 0.000000 0.000000 -4.707837 -48.139925 -27.155276 -27.201238 36.679675 -7.696769 0.192932 -2.973126 -5.519596 7.125000 0.000000 0.000000 
-0.862674 14.040985 17.295481 84.205240 36.956520 81.550936 -23.915995 13.369968 -14.426173 22.401184 19.166021 96.806913 0.354566 1.821666 12.938511 0.006600 -0.523600 -1.438700 39.992138 17.508086 -28.134466 -4.548153 -13.611755 42.439270 -3.246779 15.423768 25.334745 -1.025400 6.441700 -18.071400 -7.171801 -3.365326 -26.273715 -2.351659 -0.729380 0.721786 -14.438195 -8.372967 35.361598 -6.033400 -4.623100 12.956600 -0.368880 -0.646704 -16.731948 15.224523 -19.858076 -2.792887 0.909126 1.138830 -39.515320 -7.125000 0.000000 0.000000 -4.892352 -48.055799 -27.302409 -27.047640 36.610395 -7.697808 0.061829 -3.025771 -5.531413 7.125000 0.000000 0.000000 
-0.864815 14.060860 17.208439 84.127056 40.638040 81.894916 -19.417312 13.053432 -14.908396 22.588535 19.277909 97.332471 0.499613 0.826263 13.086523 0.001900 -0.282500 -0.776100 43.719124 17.408087 -28.109071 -4.524480 -13.562664 42.416450 -3.230758 15.693111 25.340801 -0.891100 6.017000 -16.833600 -5.285486 -3.207349 -26.494150 -3.869417 -0.886855 0.781934 -14.132877 -8.677464 35.789195 -5.928700 -4.721400 13.160900 -0.261947 -0.548961 -16.339785 15.186912 -19.861945 -2.785351 0.908938 1.114851 -39.667135 -7.125000 0.000000 0.000000 -4.925794 -48.016792 -27.746345 -27.053613 36.579011 -7.606646 0.320166 -2.967207 -5.218871 7.125000 0.000000 0.000000 
-0.865528 14.012243 17.130468 85.244246 35.769630 83.243222 -25.631726 12.824392 -15.281960 22.363319 19.210160 96.677014 0.304055 2.218675 13.052550 0.004400 -0.429900 -1.181100 38.250161 18.706020 -29.639417 -4.790709 -13.987289 43.513029 -3.242122 16.229079 25.043126 -0.758300 5.561300 -15.516600 -7.249845 -3.610605 -26.460864 -1.498925 -0.801220 1.196237 -14.381052 -8.648184 35.505661 -6.027500 -4.752400 13.105000 -0.580034 -0.624768 -16.648045 15.293723 -19.886805 -2.808167 0.946205 1.130844 -39.526314 -7.125000 0.000000 0.000000 -5.020988 -47.855531 -28.195890 -26.785501 36.470007 -7.730081 -0.021446 -3.165676 -5.235330 7.125000 0.000000 0.000000 
-0.875721 14.016218 17.031807 85.764366 33.771945 83.315152 -28.039798 13.157411 -14.765986 22.223731 19.140316 96.286762 0.234746 2.681200 13.008894 0.010100 -0.649200 -1.783900 36.085250 18.791586 -29.703868 -4.889635 -14.103561 43.858082 -3.231495 16.342188 24.725536 -0.694100 5.326000 -14.840800 -8.886270 -3.740710 -26.411113 -1.080769 -0.700618 0.640856 -14.043221 -9.159229 35.497100 -5.944500 -4.836900 12.982800 -0.202766 -0.921083 -15.977701 15.327273 -19.968401 -2.830142 0.944485 1.120469 -40.022750 -7.125000 0.000000 0.000000 -4.653752 -48.279957 -27.532957 -26.945537 36.451877 -7.644708 0.176760 -2.976995 -5.460691 7.125000 0.000000 0.000000 
-0.873274 14.029366 16.947619 85.956050 34.463121 83.472556 -27.121855 13.430138 -14.602457 22.190325 19.146177 96.194963 0.293136 2.333745 13.158668 0.025300 -1.026600 -2.822000 36.751781 18.877915 -29.718279 -4.996803 -14.211093 44.287992 -3.230770 16.250226 24.852708 -0.747600 5.523000 -15.406500 -8.685229 -3.713154 -26.581196 -1.473896 -0.722894 0.525279 -14.356188 -9.054321 35.282240 -6.005000 -4.811900 12.749000 -0.117494 -0.961093 -15.455303 15.325941 -19.992344 -2.833656 0.930307 1.114104 -40.332925 -7.125000 0.000000 0.000000 -4.788298 -48.521225 -26.919050 -27.051425 36.652421 -7.771431 0.053025 -3.044442 -6.010269 7.125000 0.000000 0.000000 
